<svg xmlns="http://www.w3.org/2000/svg" xmlns:xlink="http://www.w3.org/1999/xlink" width="87" zoomAndPan="magnify" viewBox="0 0 65.25 52.499999" height="70" preserveAspectRatio="xMidYMid meet" version="1.0"><defs><clipPath id="21b086d4c4"><path d="M 2 2 L 62 2 L 62 51.214844 L 2 51.214844 Z M 2 2 " clip-rule="nonzero"/></clipPath><clipPath id="787a035169"><path d="M 2 2 L 62 2 L 62 51.214844 L 2 51.214844 Z M 2 2 " clip-rule="nonzero"/></clipPath></defs><g clip-path="url(#21b086d4c4)"><path fill="#e2b8ff" d="M 57.265625 7.472656 C 51.414062 1.824219 39.835938 0.117188 32.171875 8.871094 C 24.511719 0.117188 12.929688 1.824219 7.082031 7.472656 C 0 14.316406 1.230469 28.417969 10.90625 38.425781 C 17.289062 45.035156 24.417969 48.976562 32.042969 51.226562 C 32.089844 51.226562 32.257812 51.226562 32.292969 51.226562 C 39.917969 48.976562 47.035156 45.035156 53.429688 38.425781 C 63.113281 28.417969 64.347656 14.316406 57.265625 7.472656 Z M 57.265625 7.472656 " fill-opacity="1" fill-rule="nonzero"/></g><path fill="#ff5e7f" d="M 20.203125 22.9375 C 20.203125 24.203125 18.648438 25.234375 16.742188 25.234375 C 14.835938 25.234375 13.285156 24.203125 13.285156 22.9375 C 13.285156 21.671875 14.835938 20.640625 16.742188 20.640625 C 18.648438 20.628906 20.203125 21.660156 20.203125 22.9375 Z M 47.601562 20.746094 C 45.695312 20.746094 44.144531 21.777344 44.144531 23.042969 C 44.144531 24.3125 45.695312 25.339844 47.601562 25.339844 C 49.507812 25.339844 51.058594 24.3125 51.058594 23.042969 C 51.046875 21.777344 49.507812 20.746094 47.601562 20.746094 Z M 47.601562 20.746094 " fill-opacity="1" fill-rule="nonzero"/><path fill="#000000" d="M 32.171875 34.957031 C 27.683594 34.957031 23.859375 31.605469 23.292969 27.152344 C 23.234375 26.667969 23.5625 26.230469 24.050781 26.171875 C 24.535156 26.109375 24.972656 26.441406 25.03125 26.929688 C 25.496094 30.503906 28.5625 33.203125 32.171875 33.203125 C 35.785156 33.203125 38.851562 30.503906 39.3125 26.929688 C 39.371094 26.441406 39.8125 26.109375 40.296875 26.171875 C 40.78125 26.230469 41.113281 26.667969 41.054688 27.152344 C 40.484375 31.605469 36.660156 34.957031 32.171875 34.957031 Z M 26.9375 20.78125 L 26.9375 16.425781 C 26.9375 15.582031 26.253906 14.898438 25.410156 14.898438 C 24.570312 14.898438 23.882812 15.582031 23.882812 16.425781 L 23.882812 20.78125 C 23.882812 21.621094 24.570312 22.308594 25.410156 22.308594 C 26.253906 22.308594 26.9375 21.621094 26.9375 20.78125 Z M 40.449219 20.78125 L 40.449219 16.425781 C 40.449219 15.582031 39.761719 14.898438 38.921875 14.898438 C 38.082031 14.898438 37.394531 15.582031 37.394531 16.425781 L 37.394531 20.78125 C 37.394531 21.621094 38.082031 22.308594 38.921875 22.308594 C 39.773438 22.308594 40.449219 21.621094 40.449219 20.78125 Z M 40.449219 20.78125 " fill-opacity="1" fill-rule="nonzero"/><g clip-path="url(#787a035169)"><path fill="#e2b8ff" d="M 57.265625 7.472656 C 51.414062 1.824219 39.835938 0.117188 32.171875 8.871094 C 24.511719 0.117188 12.929688 1.824219 7.082031 7.472656 C 0 14.316406 1.230469 28.417969 10.90625 38.425781 C 17.289062 45.035156 24.417969 48.976562 32.042969 51.226562 C 32.089844 51.226562 32.257812 51.226562 32.292969 51.226562 C 39.917969 48.976562 47.035156 45.035156 53.429688 38.425781 C 63.113281 28.417969 64.347656 14.316406 57.265625 7.472656 Z M 57.265625 7.472656 " fill-opacity="1" fill-rule="nonzero"/></g><path fill="#ff5e7f" d="M 20.203125 22.9375 C 20.203125 24.203125 18.648438 25.234375 16.742188 25.234375 C 14.835938 25.234375 13.285156 24.203125 13.285156 22.9375 C 13.285156 21.671875 14.835938 20.640625 16.742188 20.640625 C 18.648438 20.628906 20.203125 21.660156 20.203125 22.9375 Z M 47.601562 20.746094 C 45.695312 20.746094 44.144531 21.777344 44.144531 23.042969 C 44.144531 24.3125 45.695312 25.339844 47.601562 25.339844 C 49.507812 25.339844 51.058594 24.3125 51.058594 23.042969 C 51.046875 21.777344 49.507812 20.746094 47.601562 20.746094 Z M 47.601562 20.746094 " fill-opacity="1" fill-rule="nonzero"/><path fill="#000000" d="M 32.171875 34.957031 C 27.683594 34.957031 23.859375 31.605469 23.292969 27.152344 C 23.234375 26.667969 23.5625 26.230469 24.050781 26.171875 C 24.535156 26.109375 24.972656 26.441406 25.03125 26.929688 C 25.496094 30.503906 28.5625 33.203125 32.171875 33.203125 C 35.785156 33.203125 38.851562 30.503906 39.3125 26.929688 C 39.371094 26.441406 39.8125 26.109375 40.296875 26.171875 C 40.78125 26.230469 41.113281 26.667969 41.054688 27.152344 C 40.484375 31.605469 36.660156 34.957031 32.171875 34.957031 Z M 26.9375 20.78125 L 26.9375 16.425781 C 26.9375 15.582031 26.253906 14.898438 25.410156 14.898438 C 24.570312 14.898438 23.882812 15.582031 23.882812 16.425781 L 23.882812 20.78125 C 23.882812 21.621094 24.570312 22.308594 25.410156 22.308594 C 26.253906 22.308594 26.9375 21.621094 26.9375 20.78125 Z M 40.449219 20.78125 L 40.449219 16.425781 C 40.449219 15.582031 39.761719 14.898438 38.921875 14.898438 C 38.082031 14.898438 37.394531 15.582031 37.394531 16.425781 L 37.394531 20.78125 C 37.394531 21.621094 38.082031 22.308594 38.921875 22.308594 C 39.773438 22.308594 40.449219 21.621094 40.449219 20.78125 Z M 40.449219 20.78125 " fill-opacity="1" fill-rule="nonzero"/></svg>