<svg xmlns="http://www.w3.org/2000/svg" xmlns:xlink="http://www.w3.org/1999/xlink" width="93" zoomAndPan="magnify" viewBox="0 0 69.75 69.749997" height="93" preserveAspectRatio="xMidYMid meet" version="1.0"><defs><clipPath id="42170b07fa"><path d="M 0 0 L 68.753906 0 L 68.753906 68.753906 L 0 68.753906 Z M 0 0 " clip-rule="nonzero"/></clipPath><clipPath id="cf70d22336"><path d="M 0 0 L 68.753906 0 L 68.753906 68.753906 L 0 68.753906 Z M 0 0 " clip-rule="nonzero"/></clipPath></defs><path fill="#fbc8dd" d="M 42.597656 63.277344 C 48.425781 69.105469 57.441406 69.105469 63.269531 63.277344 C 69.097656 57.449219 69.097656 48.433594 63.269531 42.605469 L 1.257812 1.261719 Z M 42.597656 63.277344 " fill-opacity="1" fill-rule="nonzero"/><path fill="#e2b8ff" d="M 62.121094 52.941406 C 62.121094 53.542969 62.0625 54.140625 61.945312 54.734375 C 61.824219 55.324219 61.652344 55.898438 61.421875 56.457031 C 61.191406 57.011719 60.90625 57.542969 60.570312 58.042969 C 60.238281 58.546875 59.855469 59.011719 59.429688 59.4375 C 59.003906 59.863281 58.539062 60.242188 58.039062 60.578125 C 57.535156 60.914062 57.007812 61.199219 56.449219 61.429688 C 55.890625 61.660156 55.316406 61.832031 54.726562 61.949219 C 54.132812 62.070312 53.535156 62.128906 52.933594 62.128906 C 52.328125 62.128906 51.734375 62.070312 51.140625 61.949219 C 50.550781 61.832031 49.976562 61.660156 49.417969 61.429688 C 48.859375 61.199219 48.332031 60.914062 47.828125 60.578125 C 47.328125 60.242188 46.863281 59.863281 46.4375 59.4375 C 46.011719 59.011719 45.628906 58.546875 45.292969 58.042969 C 44.960938 57.542969 44.675781 57.011719 44.445312 56.457031 C 44.214844 55.898438 44.039062 55.324219 43.921875 54.734375 C 43.804688 54.140625 43.746094 53.542969 43.746094 52.941406 C 43.746094 52.335938 43.804688 51.738281 43.921875 51.148438 C 44.039062 50.554688 44.214844 49.980469 44.445312 49.425781 C 44.675781 48.867188 44.960938 48.339844 45.292969 47.835938 C 45.628906 47.335938 46.011719 46.871094 46.4375 46.445312 C 46.863281 46.019531 47.328125 45.636719 47.828125 45.300781 C 48.332031 44.964844 48.859375 44.683594 49.417969 44.453125 C 49.976562 44.222656 50.550781 44.046875 51.140625 43.929688 C 51.734375 43.8125 52.328125 43.753906 52.933594 43.753906 C 53.535156 43.753906 54.132812 43.8125 54.726562 43.929688 C 55.316406 44.046875 55.890625 44.222656 56.449219 44.453125 C 57.007812 44.683594 57.535156 44.964844 58.039062 45.300781 C 58.539062 45.636719 59.003906 46.019531 59.429688 46.445312 C 59.855469 46.871094 60.238281 47.335938 60.570312 47.835938 C 60.90625 48.339844 61.191406 48.867188 61.421875 49.425781 C 61.652344 49.980469 61.824219 50.554688 61.945312 51.148438 C 62.0625 51.738281 62.121094 52.335938 62.121094 52.941406 Z M 62.121094 52.941406 " fill-opacity="1" fill-rule="nonzero"/><path fill="#4f5659" d="M 52.933594 46.050781 C 52.933594 46.203125 52.902344 46.347656 52.847656 46.488281 C 52.789062 46.628906 52.703125 46.753906 52.597656 46.863281 C 52.488281 46.96875 52.363281 47.054688 52.222656 47.109375 C 52.082031 47.167969 51.9375 47.199219 51.785156 47.199219 C 51.632812 47.199219 51.484375 47.167969 51.34375 47.109375 C 51.203125 47.054688 51.082031 46.96875 50.972656 46.863281 C 50.863281 46.753906 50.78125 46.628906 50.722656 46.488281 C 50.664062 46.347656 50.636719 46.203125 50.636719 46.050781 C 50.636719 45.898438 50.664062 45.75 50.722656 45.609375 C 50.78125 45.46875 50.863281 45.347656 50.972656 45.238281 C 51.082031 45.128906 51.203125 45.046875 51.34375 44.988281 C 51.484375 44.929688 51.632812 44.902344 51.785156 44.902344 C 51.9375 44.902344 52.082031 44.929688 52.222656 44.988281 C 52.363281 45.046875 52.488281 45.128906 52.597656 45.238281 C 52.703125 45.347656 52.789062 45.46875 52.847656 45.609375 C 52.902344 45.75 52.933594 45.898438 52.933594 46.050781 Z M 52.933594 46.050781 " fill-opacity="1" fill-rule="nonzero"/><path fill="#4f5659" d="M 50.636719 54.089844 C 50.636719 54.242188 50.605469 54.386719 50.550781 54.527344 C 50.492188 54.667969 50.40625 54.792969 50.300781 54.902344 C 50.191406 55.007812 50.066406 55.089844 49.925781 55.148438 C 49.785156 55.207031 49.640625 55.238281 49.488281 55.238281 C 49.335938 55.238281 49.1875 55.207031 49.046875 55.148438 C 48.90625 55.089844 48.785156 55.007812 48.675781 54.902344 C 48.570312 54.792969 48.484375 54.667969 48.425781 54.527344 C 48.367188 54.386719 48.339844 54.242188 48.339844 54.089844 C 48.339844 53.9375 48.367188 53.789062 48.425781 53.648438 C 48.484375 53.507812 48.570312 53.382812 48.675781 53.277344 C 48.785156 53.167969 48.90625 53.085938 49.046875 53.027344 C 49.1875 52.96875 49.335938 52.941406 49.488281 52.941406 C 49.640625 52.941406 49.785156 52.96875 49.925781 53.027344 C 50.066406 53.085938 50.191406 53.167969 50.300781 53.277344 C 50.40625 53.382812 50.492188 53.507812 50.550781 53.648438 C 50.605469 53.789062 50.636719 53.9375 50.636719 54.089844 Z M 50.636719 54.089844 " fill-opacity="1" fill-rule="nonzero"/><path fill="#4f5659" d="M 60.972656 55.238281 C 60.972656 55.390625 60.941406 55.535156 60.882812 55.675781 C 60.828125 55.816406 60.742188 55.941406 60.636719 56.050781 C 60.527344 56.15625 60.402344 56.238281 60.261719 56.296875 C 60.121094 56.355469 59.976562 56.386719 59.824219 56.386719 C 59.671875 56.386719 59.523438 56.355469 59.382812 56.296875 C 59.242188 56.238281 59.121094 56.15625 59.011719 56.050781 C 58.902344 55.941406 58.820312 55.816406 58.761719 55.675781 C 58.703125 55.535156 58.675781 55.390625 58.675781 55.238281 C 58.675781 55.085938 58.703125 54.9375 58.761719 54.796875 C 58.820312 54.65625 58.902344 54.53125 59.011719 54.425781 C 59.121094 54.316406 59.242188 54.234375 59.382812 54.175781 C 59.523438 54.117188 59.671875 54.089844 59.824219 54.089844 C 59.976562 54.089844 60.121094 54.117188 60.261719 54.175781 C 60.402344 54.234375 60.527344 54.316406 60.636719 54.425781 C 60.742188 54.53125 60.828125 54.65625 60.882812 54.796875 C 60.941406 54.9375 60.972656 55.085938 60.972656 55.238281 Z M 60.972656 55.238281 " fill-opacity="1" fill-rule="nonzero"/><path fill="#ffd33a" d="M 63.269531 5.886719 L 65.566406 7.019531 L 63.269531 8.183594 L 62.132812 10.449219 L 60.972656 8.183594 L 58.703125 7.019531 L 60.972656 5.886719 L 62.132812 3.589844 Z M 63.269531 5.886719 " fill-opacity="1" fill-rule="nonzero"/><path fill="#ffd33a" d="M 8.144531 60.949219 L 10.441406 62.113281 L 8.144531 63.246094 L 7.011719 65.542969 L 5.847656 63.246094 L 3.554688 62.113281 L 5.847656 60.949219 L 7.011719 58.683594 Z M 8.144531 60.949219 " fill-opacity="1" fill-rule="nonzero"/><path fill="#e2b8ff" d="M 9.566406 20.84375 C 9.222656 20.3125 8.503906 20.167969 7.972656 20.527344 C 7.441406 20.886719 7.300781 21.589844 7.660156 22.121094 L 26.03125 49.683594 C 26.246094 50.011719 26.621094 50.199219 26.996094 50.199219 C 27.210938 50.199219 27.4375 50.140625 27.625 50.011719 C 28.15625 49.652344 28.300781 48.949219 27.941406 48.417969 Z M 9.566406 20.84375 " fill-opacity="1" fill-rule="nonzero"/><path fill="#e2b8ff" d="M 20.835938 9.574219 L 48.398438 27.949219 C 48.597656 28.078125 48.8125 28.136719 49.027344 28.136719 C 49.402344 28.136719 49.761719 27.949219 49.992188 27.617188 C 50.347656 27.085938 50.207031 26.382812 49.675781 26.023438 L 22.113281 7.652344 C 21.582031 7.292969 20.878906 7.4375 20.519531 7.96875 C 20.160156 8.496094 20.304688 9.214844 20.835938 9.574219 Z M 20.835938 9.574219 " fill-opacity="1" fill-rule="nonzero"/><g clip-path="url(#42170b07fa)"><path fill="#e2b8ff" d="M 64.085938 41.785156 C 64.03125 41.730469 63.972656 41.6875 63.914062 41.644531 L 1.902344 0.300781 C 1.441406 0 0.839844 0.0585938 0.453125 0.445312 C 0.0664062 0.832031 0.0078125 1.433594 0.308594 1.894531 L 41.648438 63.90625 C 41.695312 63.964844 41.738281 64.023438 41.792969 64.078125 C 44.835938 67.121094 48.785156 68.789062 52.949219 68.789062 C 57.109375 68.789062 61.058594 67.109375 64.101562 64.078125 C 67.144531 61.035156 68.808594 57.089844 68.808594 52.925781 C 68.808594 48.761719 67.117188 44.828125 64.085938 41.785156 Z M 62.449219 62.457031 C 59.851562 65.054688 56.464844 66.492188 52.933594 66.492188 C 49.429688 66.492188 46.085938 65.085938 43.488281 62.53125 L 5.390625 5.398438 L 62.523438 43.496094 C 65.078125 46.09375 66.484375 49.4375 66.484375 52.941406 C 66.5 56.484375 65.0625 59.859375 62.449219 62.457031 Z M 62.449219 62.457031 " fill-opacity="1" fill-rule="nonzero"/></g><path fill="#e2b8ff" d="M 52.933594 42.605469 C 47.234375 42.605469 42.597656 47.242188 42.597656 52.941406 C 42.597656 58.640625 47.234375 63.277344 52.933594 63.277344 C 58.632812 63.277344 63.269531 58.640625 63.269531 52.941406 C 63.269531 47.242188 58.632812 42.605469 52.933594 42.605469 Z M 52.933594 60.980469 C 48.496094 60.980469 44.894531 57.375 44.894531 52.941406 C 44.894531 49.121094 47.566406 45.933594 51.125 45.101562 C 50.824219 45.304688 50.636719 45.648438 50.636719 46.050781 C 50.636719 46.683594 51.152344 47.199219 51.785156 47.199219 C 52.417969 47.199219 52.933594 46.683594 52.933594 46.050781 C 52.933594 45.519531 52.574219 45.074219 52.101562 44.945312 C 52.375 44.917969 52.660156 44.902344 52.933594 44.902344 C 57.367188 44.902344 60.972656 48.503906 60.972656 52.941406 C 60.972656 53.515625 60.914062 54.074219 60.800781 54.621094 C 60.597656 54.304688 60.238281 54.089844 59.824219 54.089844 C 59.191406 54.089844 58.675781 54.605469 58.675781 55.238281 C 58.675781 55.867188 59.191406 56.386719 59.824219 56.386719 C 59.96875 56.386719 60.097656 56.355469 60.226562 56.3125 C 58.949219 59.070312 56.164062 60.980469 52.933594 60.980469 Z M 52.933594 60.980469 " fill-opacity="1" fill-rule="nonzero"/><path fill="#e2b8ff" d="M 50.636719 54.089844 C 50.636719 54.242188 50.605469 54.386719 50.550781 54.527344 C 50.492188 54.667969 50.40625 54.792969 50.300781 54.902344 C 50.191406 55.007812 50.066406 55.089844 49.925781 55.148438 C 49.785156 55.207031 49.640625 55.238281 49.488281 55.238281 C 49.335938 55.238281 49.1875 55.207031 49.046875 55.148438 C 48.90625 55.089844 48.785156 55.007812 48.675781 54.902344 C 48.570312 54.792969 48.484375 54.667969 48.425781 54.527344 C 48.367188 54.386719 48.339844 54.242188 48.339844 54.089844 C 48.339844 53.9375 48.367188 53.789062 48.425781 53.648438 C 48.484375 53.507812 48.570312 53.382812 48.675781 53.277344 C 48.785156 53.167969 48.90625 53.085938 49.046875 53.027344 C 49.1875 52.96875 49.335938 52.941406 49.488281 52.941406 C 49.640625 52.941406 49.785156 52.96875 49.925781 53.027344 C 50.066406 53.085938 50.191406 53.167969 50.300781 53.277344 C 50.40625 53.382812 50.492188 53.507812 50.550781 53.648438 C 50.605469 53.789062 50.636719 53.9375 50.636719 54.089844 Z M 50.636719 54.089844 " fill-opacity="1" fill-rule="nonzero"/><path fill="#e2b8ff" d="M 58.171875 8.039062 L 60.109375 9.027344 L 61.101562 10.96875 C 61.300781 11.355469 61.691406 11.597656 62.121094 11.597656 C 62.550781 11.597656 62.953125 11.355469 63.140625 10.96875 L 64.101562 9.042969 L 66.054688 8.054688 C 66.441406 7.851562 66.683594 7.464844 66.683594 7.019531 C 66.683594 6.574219 66.441406 6.1875 66.039062 6 L 64.128906 5.023438 L 63.167969 3.070312 C 62.980469 2.683594 62.578125 2.441406 62.148438 2.425781 C 61.71875 2.425781 61.316406 2.671875 61.128906 3.058594 L 60.140625 5.011719 L 58.214844 5.972656 C 57.828125 6.15625 57.585938 6.558594 57.585938 6.992188 C 57.585938 7.421875 57.800781 7.835938 58.171875 8.039062 Z M 61.488281 6.90625 C 61.703125 6.789062 61.890625 6.617188 62.003906 6.402344 L 62.132812 6.15625 L 62.25 6.402344 C 62.363281 6.632812 62.550781 6.820312 62.765625 6.917969 L 63.011719 7.035156 L 62.765625 7.164062 C 62.550781 7.277344 62.363281 7.449219 62.265625 7.679688 L 62.148438 7.925781 L 62.019531 7.679688 C 61.90625 7.464844 61.734375 7.292969 61.515625 7.175781 L 61.273438 7.046875 Z M 61.488281 6.90625 " fill-opacity="1" fill-rule="nonzero"/><path fill="#e2b8ff" d="M 10.960938 61.09375 L 9.007812 60.101562 L 8.046875 58.179688 C 7.859375 57.792969 7.457031 57.546875 7.027344 57.546875 C 6.597656 57.546875 6.195312 57.792969 6.007812 58.179688 L 5.015625 60.117188 L 3.050781 61.109375 C 2.664062 61.308594 2.417969 61.695312 2.417969 62.140625 C 2.417969 62.585938 2.664062 62.972656 3.066406 63.160156 L 5.015625 64.121094 L 6.007812 66.074219 C 6.207031 66.460938 6.597656 66.707031 7.027344 66.707031 C 7.457031 66.707031 7.859375 66.460938 8.046875 66.0625 L 9.007812 64.109375 L 10.960938 63.148438 C 11.347656 62.960938 11.589844 62.558594 11.605469 62.128906 C 11.621094 61.695312 11.347656 61.28125 10.960938 61.09375 Z M 7.644531 62.214844 C 7.414062 62.328125 7.226562 62.515625 7.128906 62.730469 L 7.011719 62.972656 L 6.882812 62.730469 C 6.769531 62.515625 6.597656 62.328125 6.367188 62.214844 L 6.121094 62.097656 L 6.367188 61.96875 C 6.582031 61.855469 6.753906 61.683594 6.867188 61.46875 L 6.996094 61.222656 L 7.113281 61.46875 C 7.226562 61.683594 7.398438 61.867188 7.613281 61.984375 L 7.859375 62.113281 Z M 7.644531 62.214844 " fill-opacity="1" fill-rule="nonzero"/><path fill="#e2b8ff" d="M 42.597656 11.597656 C 42.597656 12.230469 43.113281 12.746094 43.746094 12.746094 C 44.378906 12.746094 44.894531 12.230469 44.894531 11.597656 C 45.527344 11.597656 46.042969 11.082031 46.042969 10.449219 C 46.042969 9.820312 45.527344 9.300781 44.894531 9.300781 C 44.894531 8.671875 44.378906 8.152344 43.746094 8.152344 C 43.113281 8.152344 42.597656 8.671875 42.597656 9.300781 C 41.964844 9.300781 41.449219 9.820312 41.449219 10.449219 C 41.449219 11.082031 41.964844 11.597656 42.597656 11.597656 Z M 42.597656 11.597656 " fill-opacity="1" fill-rule="nonzero"/><path fill="#e2b8ff" d="M 11.589844 43.753906 C 11.589844 43.121094 11.074219 42.605469 10.441406 42.605469 C 9.8125 42.605469 9.292969 43.121094 9.292969 43.753906 C 8.664062 43.753906 8.144531 44.269531 8.144531 44.902344 C 8.144531 45.535156 8.664062 46.050781 9.292969 46.050781 C 9.292969 46.683594 9.8125 47.199219 10.441406 47.199219 C 11.074219 47.199219 11.589844 46.683594 11.589844 46.050781 C 12.222656 46.050781 12.738281 45.535156 12.738281 44.902344 C 12.738281 44.269531 12.222656 43.753906 11.589844 43.753906 Z M 11.589844 43.753906 " fill-opacity="1" fill-rule="nonzero"/><path fill="#fbc8dd" d="M 42.597656 63.277344 C 48.425781 69.105469 57.441406 69.105469 63.269531 63.277344 C 69.097656 57.449219 69.097656 48.433594 63.269531 42.605469 L 1.257812 1.261719 Z M 42.597656 63.277344 " fill-opacity="1" fill-rule="nonzero"/><path fill="#e2b8ff" d="M 62.121094 52.941406 C 62.121094 53.542969 62.0625 54.140625 61.945312 54.734375 C 61.824219 55.324219 61.652344 55.898438 61.421875 56.457031 C 61.191406 57.011719 60.90625 57.542969 60.570312 58.042969 C 60.238281 58.546875 59.855469 59.011719 59.429688 59.4375 C 59.003906 59.863281 58.539062 60.242188 58.039062 60.578125 C 57.535156 60.914062 57.007812 61.199219 56.449219 61.429688 C 55.890625 61.660156 55.316406 61.832031 54.726562 61.949219 C 54.132812 62.070312 53.535156 62.128906 52.933594 62.128906 C 52.328125 62.128906 51.734375 62.070312 51.140625 61.949219 C 50.550781 61.832031 49.976562 61.660156 49.417969 61.429688 C 48.859375 61.199219 48.332031 60.914062 47.828125 60.578125 C 47.328125 60.242188 46.863281 59.863281 46.4375 59.4375 C 46.011719 59.011719 45.628906 58.546875 45.292969 58.042969 C 44.960938 57.542969 44.675781 57.011719 44.445312 56.457031 C 44.214844 55.898438 44.039062 55.324219 43.921875 54.734375 C 43.804688 54.140625 43.746094 53.542969 43.746094 52.941406 C 43.746094 52.335938 43.804688 51.738281 43.921875 51.148438 C 44.039062 50.554688 44.214844 49.980469 44.445312 49.425781 C 44.675781 48.867188 44.960938 48.339844 45.292969 47.835938 C 45.628906 47.335938 46.011719 46.871094 46.4375 46.445312 C 46.863281 46.019531 47.328125 45.636719 47.828125 45.300781 C 48.332031 44.964844 48.859375 44.683594 49.417969 44.453125 C 49.976562 44.222656 50.550781 44.046875 51.140625 43.929688 C 51.734375 43.8125 52.328125 43.753906 52.933594 43.753906 C 53.535156 43.753906 54.132812 43.8125 54.726562 43.929688 C 55.316406 44.046875 55.890625 44.222656 56.449219 44.453125 C 57.007812 44.683594 57.535156 44.964844 58.039062 45.300781 C 58.539062 45.636719 59.003906 46.019531 59.429688 46.445312 C 59.855469 46.871094 60.238281 47.335938 60.570312 47.835938 C 60.90625 48.339844 61.191406 48.867188 61.421875 49.425781 C 61.652344 49.980469 61.824219 50.554688 61.945312 51.148438 C 62.0625 51.738281 62.121094 52.335938 62.121094 52.941406 Z M 62.121094 52.941406 " fill-opacity="1" fill-rule="nonzero"/><path fill="#4f5659" d="M 52.933594 46.050781 C 52.933594 46.203125 52.902344 46.347656 52.847656 46.488281 C 52.789062 46.628906 52.703125 46.753906 52.597656 46.863281 C 52.488281 46.96875 52.363281 47.054688 52.222656 47.109375 C 52.082031 47.167969 51.9375 47.199219 51.785156 47.199219 C 51.632812 47.199219 51.484375 47.167969 51.34375 47.109375 C 51.203125 47.054688 51.082031 46.96875 50.972656 46.863281 C 50.863281 46.753906 50.78125 46.628906 50.722656 46.488281 C 50.664062 46.347656 50.636719 46.203125 50.636719 46.050781 C 50.636719 45.898438 50.664062 45.75 50.722656 45.609375 C 50.78125 45.46875 50.863281 45.347656 50.972656 45.238281 C 51.082031 45.128906 51.203125 45.046875 51.34375 44.988281 C 51.484375 44.929688 51.632812 44.902344 51.785156 44.902344 C 51.9375 44.902344 52.082031 44.929688 52.222656 44.988281 C 52.363281 45.046875 52.488281 45.128906 52.597656 45.238281 C 52.703125 45.347656 52.789062 45.46875 52.847656 45.609375 C 52.902344 45.75 52.933594 45.898438 52.933594 46.050781 Z M 52.933594 46.050781 " fill-opacity="1" fill-rule="nonzero"/><path fill="#4f5659" d="M 50.636719 54.089844 C 50.636719 54.242188 50.605469 54.386719 50.550781 54.527344 C 50.492188 54.667969 50.40625 54.792969 50.300781 54.902344 C 50.191406 55.007812 50.066406 55.089844 49.925781 55.148438 C 49.785156 55.207031 49.640625 55.238281 49.488281 55.238281 C 49.335938 55.238281 49.1875 55.207031 49.046875 55.148438 C 48.90625 55.089844 48.785156 55.007812 48.675781 54.902344 C 48.570312 54.792969 48.484375 54.667969 48.425781 54.527344 C 48.367188 54.386719 48.339844 54.242188 48.339844 54.089844 C 48.339844 53.9375 48.367188 53.789062 48.425781 53.648438 C 48.484375 53.507812 48.570312 53.382812 48.675781 53.277344 C 48.785156 53.167969 48.90625 53.085938 49.046875 53.027344 C 49.1875 52.96875 49.335938 52.941406 49.488281 52.941406 C 49.640625 52.941406 49.785156 52.96875 49.925781 53.027344 C 50.066406 53.085938 50.191406 53.167969 50.300781 53.277344 C 50.40625 53.382812 50.492188 53.507812 50.550781 53.648438 C 50.605469 53.789062 50.636719 53.9375 50.636719 54.089844 Z M 50.636719 54.089844 " fill-opacity="1" fill-rule="nonzero"/><path fill="#4f5659" d="M 60.972656 55.238281 C 60.972656 55.390625 60.941406 55.535156 60.882812 55.675781 C 60.828125 55.816406 60.742188 55.941406 60.636719 56.050781 C 60.527344 56.15625 60.402344 56.238281 60.261719 56.296875 C 60.121094 56.355469 59.976562 56.386719 59.824219 56.386719 C 59.671875 56.386719 59.523438 56.355469 59.382812 56.296875 C 59.242188 56.238281 59.121094 56.15625 59.011719 56.050781 C 58.902344 55.941406 58.820312 55.816406 58.761719 55.675781 C 58.703125 55.535156 58.675781 55.390625 58.675781 55.238281 C 58.675781 55.085938 58.703125 54.9375 58.761719 54.796875 C 58.820312 54.65625 58.902344 54.53125 59.011719 54.425781 C 59.121094 54.316406 59.242188 54.234375 59.382812 54.175781 C 59.523438 54.117188 59.671875 54.089844 59.824219 54.089844 C 59.976562 54.089844 60.121094 54.117188 60.261719 54.175781 C 60.402344 54.234375 60.527344 54.316406 60.636719 54.425781 C 60.742188 54.53125 60.828125 54.65625 60.882812 54.796875 C 60.941406 54.9375 60.972656 55.085938 60.972656 55.238281 Z M 60.972656 55.238281 " fill-opacity="1" fill-rule="nonzero"/><path fill="#ffd33a" d="M 63.269531 5.886719 L 65.566406 7.019531 L 63.269531 8.183594 L 62.132812 10.449219 L 60.972656 8.183594 L 58.703125 7.019531 L 60.972656 5.886719 L 62.132812 3.589844 Z M 63.269531 5.886719 " fill-opacity="1" fill-rule="nonzero"/><path fill="#ffd33a" d="M 8.144531 60.949219 L 10.441406 62.113281 L 8.144531 63.246094 L 7.011719 65.542969 L 5.847656 63.246094 L 3.554688 62.113281 L 5.847656 60.949219 L 7.011719 58.683594 Z M 8.144531 60.949219 " fill-opacity="1" fill-rule="nonzero"/><path fill="#e2b8ff" d="M 9.566406 20.84375 C 9.222656 20.3125 8.503906 20.167969 7.972656 20.527344 C 7.441406 20.886719 7.300781 21.589844 7.660156 22.121094 L 26.03125 49.683594 C 26.246094 50.011719 26.621094 50.199219 26.996094 50.199219 C 27.210938 50.199219 27.4375 50.140625 27.625 50.011719 C 28.15625 49.652344 28.300781 48.949219 27.941406 48.417969 Z M 9.566406 20.84375 " fill-opacity="1" fill-rule="nonzero"/><path fill="#e2b8ff" d="M 20.835938 9.574219 L 48.398438 27.949219 C 48.597656 28.078125 48.8125 28.136719 49.027344 28.136719 C 49.402344 28.136719 49.761719 27.949219 49.992188 27.617188 C 50.347656 27.085938 50.207031 26.382812 49.675781 26.023438 L 22.113281 7.652344 C 21.582031 7.292969 20.878906 7.4375 20.519531 7.96875 C 20.160156 8.496094 20.304688 9.214844 20.835938 9.574219 Z M 20.835938 9.574219 " fill-opacity="1" fill-rule="nonzero"/><g clip-path="url(#cf70d22336)"><path fill="#e2b8ff" d="M 64.085938 41.785156 C 64.03125 41.730469 63.972656 41.6875 63.914062 41.644531 L 1.902344 0.300781 C 1.441406 0 0.839844 0.0585938 0.453125 0.445312 C 0.0664062 0.832031 0.0078125 1.433594 0.308594 1.894531 L 41.648438 63.90625 C 41.695312 63.964844 41.738281 64.023438 41.792969 64.078125 C 44.835938 67.121094 48.785156 68.789062 52.949219 68.789062 C 57.109375 68.789062 61.058594 67.109375 64.101562 64.078125 C 67.144531 61.035156 68.808594 57.089844 68.808594 52.925781 C 68.808594 48.761719 67.117188 44.828125 64.085938 41.785156 Z M 62.449219 62.457031 C 59.851562 65.054688 56.464844 66.492188 52.933594 66.492188 C 49.429688 66.492188 46.085938 65.085938 43.488281 62.53125 L 5.390625 5.398438 L 62.523438 43.496094 C 65.078125 46.09375 66.484375 49.4375 66.484375 52.941406 C 66.5 56.484375 65.0625 59.859375 62.449219 62.457031 Z M 62.449219 62.457031 " fill-opacity="1" fill-rule="nonzero"/></g><path fill="#e2b8ff" d="M 52.933594 42.605469 C 47.234375 42.605469 42.597656 47.242188 42.597656 52.941406 C 42.597656 58.640625 47.234375 63.277344 52.933594 63.277344 C 58.632812 63.277344 63.269531 58.640625 63.269531 52.941406 C 63.269531 47.242188 58.632812 42.605469 52.933594 42.605469 Z M 52.933594 60.980469 C 48.496094 60.980469 44.894531 57.375 44.894531 52.941406 C 44.894531 49.121094 47.566406 45.933594 51.125 45.101562 C 50.824219 45.304688 50.636719 45.648438 50.636719 46.050781 C 50.636719 46.683594 51.152344 47.199219 51.785156 47.199219 C 52.417969 47.199219 52.933594 46.683594 52.933594 46.050781 C 52.933594 45.519531 52.574219 45.074219 52.101562 44.945312 C 52.375 44.917969 52.660156 44.902344 52.933594 44.902344 C 57.367188 44.902344 60.972656 48.503906 60.972656 52.941406 C 60.972656 53.515625 60.914062 54.074219 60.800781 54.621094 C 60.597656 54.304688 60.238281 54.089844 59.824219 54.089844 C 59.191406 54.089844 58.675781 54.605469 58.675781 55.238281 C 58.675781 55.867188 59.191406 56.386719 59.824219 56.386719 C 59.96875 56.386719 60.097656 56.355469 60.226562 56.3125 C 58.949219 59.070312 56.164062 60.980469 52.933594 60.980469 Z M 52.933594 60.980469 " fill-opacity="1" fill-rule="nonzero"/><path fill="#e2b8ff" d="M 50.636719 54.089844 C 50.636719 54.242188 50.605469 54.386719 50.550781 54.527344 C 50.492188 54.667969 50.40625 54.792969 50.300781 54.902344 C 50.191406 55.007812 50.066406 55.089844 49.925781 55.148438 C 49.785156 55.207031 49.640625 55.238281 49.488281 55.238281 C 49.335938 55.238281 49.1875 55.207031 49.046875 55.148438 C 48.90625 55.089844 48.785156 55.007812 48.675781 54.902344 C 48.570312 54.792969 48.484375 54.667969 48.425781 54.527344 C 48.367188 54.386719 48.339844 54.242188 48.339844 54.089844 C 48.339844 53.9375 48.367188 53.789062 48.425781 53.648438 C 48.484375 53.507812 48.570312 53.382812 48.675781 53.277344 C 48.785156 53.167969 48.90625 53.085938 49.046875 53.027344 C 49.1875 52.96875 49.335938 52.941406 49.488281 52.941406 C 49.640625 52.941406 49.785156 52.96875 49.925781 53.027344 C 50.066406 53.085938 50.191406 53.167969 50.300781 53.277344 C 50.40625 53.382812 50.492188 53.507812 50.550781 53.648438 C 50.605469 53.789062 50.636719 53.9375 50.636719 54.089844 Z M 50.636719 54.089844 " fill-opacity="1" fill-rule="nonzero"/><path fill="#e2b8ff" d="M 58.171875 8.039062 L 60.109375 9.027344 L 61.101562 10.96875 C 61.300781 11.355469 61.691406 11.597656 62.121094 11.597656 C 62.550781 11.597656 62.953125 11.355469 63.140625 10.96875 L 64.101562 9.042969 L 66.054688 8.054688 C 66.441406 7.851562 66.683594 7.464844 66.683594 7.019531 C 66.683594 6.574219 66.441406 6.1875 66.039062 6 L 64.128906 5.023438 L 63.167969 3.070312 C 62.980469 2.683594 62.578125 2.441406 62.148438 2.425781 C 61.71875 2.425781 61.316406 2.671875 61.128906 3.058594 L 60.140625 5.011719 L 58.214844 5.972656 C 57.828125 6.15625 57.585938 6.558594 57.585938 6.992188 C 57.585938 7.421875 57.800781 7.835938 58.171875 8.039062 Z M 61.488281 6.90625 C 61.703125 6.789062 61.890625 6.617188 62.003906 6.402344 L 62.132812 6.15625 L 62.25 6.402344 C 62.363281 6.632812 62.550781 6.820312 62.765625 6.917969 L 63.011719 7.035156 L 62.765625 7.164062 C 62.550781 7.277344 62.363281 7.449219 62.265625 7.679688 L 62.148438 7.925781 L 62.019531 7.679688 C 61.90625 7.464844 61.734375 7.292969 61.515625 7.175781 L 61.273438 7.046875 Z M 61.488281 6.90625 " fill-opacity="1" fill-rule="nonzero"/><path fill="#e2b8ff" d="M 10.960938 61.09375 L 9.007812 60.101562 L 8.046875 58.179688 C 7.859375 57.792969 7.457031 57.546875 7.027344 57.546875 C 6.597656 57.546875 6.195312 57.792969 6.007812 58.179688 L 5.015625 60.117188 L 3.050781 61.109375 C 2.664062 61.308594 2.417969 61.695312 2.417969 62.140625 C 2.417969 62.585938 2.664062 62.972656 3.066406 63.160156 L 5.015625 64.121094 L 6.007812 66.074219 C 6.207031 66.460938 6.597656 66.707031 7.027344 66.707031 C 7.457031 66.707031 7.859375 66.460938 8.046875 66.0625 L 9.007812 64.109375 L 10.960938 63.148438 C 11.347656 62.960938 11.589844 62.558594 11.605469 62.128906 C 11.621094 61.695312 11.347656 61.28125 10.960938 61.09375 Z M 7.644531 62.214844 C 7.414062 62.328125 7.226562 62.515625 7.128906 62.730469 L 7.011719 62.972656 L 6.882812 62.730469 C 6.769531 62.515625 6.597656 62.328125 6.367188 62.214844 L 6.121094 62.097656 L 6.367188 61.96875 C 6.582031 61.855469 6.753906 61.683594 6.867188 61.46875 L 6.996094 61.222656 L 7.113281 61.46875 C 7.226562 61.683594 7.398438 61.867188 7.613281 61.984375 L 7.859375 62.113281 Z M 7.644531 62.214844 " fill-opacity="1" fill-rule="nonzero"/><path fill="#e2b8ff" d="M 42.597656 11.597656 C 42.597656 12.230469 43.113281 12.746094 43.746094 12.746094 C 44.378906 12.746094 44.894531 12.230469 44.894531 11.597656 C 45.527344 11.597656 46.042969 11.082031 46.042969 10.449219 C 46.042969 9.820312 45.527344 9.300781 44.894531 9.300781 C 44.894531 8.671875 44.378906 8.152344 43.746094 8.152344 C 43.113281 8.152344 42.597656 8.671875 42.597656 9.300781 C 41.964844 9.300781 41.449219 9.820312 41.449219 10.449219 C 41.449219 11.082031 41.964844 11.597656 42.597656 11.597656 Z M 42.597656 11.597656 " fill-opacity="1" fill-rule="nonzero"/><path fill="#e2b8ff" d="M 11.589844 43.753906 C 11.589844 43.121094 11.074219 42.605469 10.441406 42.605469 C 9.8125 42.605469 9.292969 43.121094 9.292969 43.753906 C 8.664062 43.753906 8.144531 44.269531 8.144531 44.902344 C 8.144531 45.535156 8.664062 46.050781 9.292969 46.050781 C 9.292969 46.683594 9.8125 47.199219 10.441406 47.199219 C 11.074219 47.199219 11.589844 46.683594 11.589844 46.050781 C 12.222656 46.050781 12.738281 45.535156 12.738281 44.902344 C 12.738281 44.269531 12.222656 43.753906 11.589844 43.753906 Z M 11.589844 43.753906 " fill-opacity="1" fill-rule="nonzero"/></svg>