<svg xmlns="http://www.w3.org/2000/svg" xmlns:xlink="http://www.w3.org/1999/xlink" width="87" zoomAndPan="magnify" viewBox="0 0 65.25 61.499996" height="82" preserveAspectRatio="xMidYMid meet" version="1.0"><defs><clipPath id="23c38f8a16"><path d="M 1 0.101562 L 64 0.101562 L 64 60.902344 L 1 60.902344 Z M 1 0.101562 " clip-rule="nonzero"/></clipPath></defs><g clip-path="url(#23c38f8a16)"><path fill="#f0b2cc" d="M 43.523438 0.160156 C 43.390625 0.164062 43.257812 0.167969 43.121094 0.179688 C 37.796875 1.101562 34.867188 6.730469 34.441406 11.699219 C 33.824219 16.203125 35.808594 21.996094 40.757812 23.007812 C 41.476562 23.144531 42.222656 23.082031 42.921875 22.890625 C 48.882812 20.894531 51.546875 13.835938 50.6875 7.992188 C 50.4375 4.214844 47.589844 0.109375 43.523438 0.160156 Z M 20.941406 0.402344 C 17.628906 0.484375 15.050781 3.84375 14.523438 7 C 13.417969 13.257812 16.261719 21.027344 22.78125 23.007812 C 23.390625 23.140625 24.023438 23.152344 24.640625 23.058594 C 29.042969 22.324219 30.910156 17.386719 30.726562 13.398438 C 30.59375 8.140625 27.859375 2.058594 22.398438 0.582031 C 21.898438 0.449219 21.414062 0.390625 20.941406 0.402344 Z M 57.953125 18.171875 C 52.222656 18.511719 48.296875 24.230469 47.734375 29.566406 C 46.976562 33.417969 49.03125 38.566406 53.421875 38.875 C 59.546875 38.796875 63.726562 32.253906 63.898438 26.621094 C 64.285156 22.898438 62.09375 18.375 57.953125 18.171875 Z M 7.804688 19.4375 C 5.367188 19.417969 2.972656 20.878906 2.175781 23.355469 C 0.0507812 29.984375 4.316406 38.378906 11.335938 39.769531 C 14.265625 40.273438 16.839844 38.023438 17.566406 35.316406 C 19.109375 29.523438 15.945312 22.800781 10.59375 20.175781 C 9.722656 19.683594 8.761719 19.449219 7.804688 19.441406 Z M 33.492188 31.324219 C 28.710938 31.332031 23.859375 33.757812 20.765625 37.367188 C 17.421875 41.574219 14.683594 46.472656 13.613281 51.78125 C 12.3125 55.601562 15.261719 60 19.347656 60.027344 C 24.261719 60.164062 28.488281 56.789062 33.375 56.539062 C 37.519531 55.90625 41.234375 58.0625 44.960938 59.476562 C 48.136719 60.832031 52.523438 60.3125 54.144531 56.894531 C 55.417969 53.414062 53.542969 49.703125 51.988281 46.609375 C 48.816406 41.589844 45.421875 36.316406 40.222656 33.183594 C 38.140625 31.890625 35.824219 31.320312 33.492188 31.324219 Z M 33.492188 31.324219 " fill-opacity="1" fill-rule="nonzero"/><path fill="#f0b2cc" d="M 43.523438 0.160156 C 43.390625 0.164062 43.257812 0.167969 43.121094 0.179688 C 37.796875 1.101562 34.867188 6.730469 34.441406 11.699219 C 33.824219 16.203125 35.808594 21.996094 40.757812 23.007812 C 41.476562 23.144531 42.222656 23.082031 42.921875 22.890625 C 48.882812 20.894531 51.546875 13.835938 50.6875 7.992188 C 50.4375 4.214844 47.589844 0.109375 43.523438 0.160156 Z M 20.941406 0.402344 C 17.628906 0.484375 15.050781 3.84375 14.523438 7 C 13.417969 13.257812 16.261719 21.027344 22.78125 23.007812 C 23.390625 23.140625 24.023438 23.152344 24.640625 23.058594 C 29.042969 22.324219 30.910156 17.386719 30.726562 13.398438 C 30.59375 8.140625 27.859375 2.058594 22.398438 0.582031 C 21.898438 0.449219 21.414062 0.390625 20.941406 0.402344 Z M 57.953125 18.171875 C 52.222656 18.511719 48.296875 24.230469 47.734375 29.566406 C 46.976562 33.417969 49.03125 38.566406 53.421875 38.875 C 59.546875 38.796875 63.726562 32.253906 63.898438 26.621094 C 64.285156 22.898438 62.09375 18.375 57.953125 18.171875 Z M 7.804688 19.4375 C 5.367188 19.417969 2.972656 20.878906 2.175781 23.355469 C 0.0507812 29.984375 4.316406 38.378906 11.335938 39.769531 C 14.265625 40.273438 16.839844 38.023438 17.566406 35.316406 C 19.109375 29.523438 15.945312 22.800781 10.59375 20.175781 C 9.722656 19.683594 8.761719 19.449219 7.804688 19.441406 Z M 33.492188 31.324219 C 28.710938 31.332031 23.859375 33.757812 20.765625 37.367188 C 17.421875 41.574219 14.683594 46.472656 13.613281 51.78125 C 12.3125 55.601562 15.261719 60 19.347656 60.027344 C 24.261719 60.164062 28.488281 56.789062 33.375 56.539062 C 37.519531 55.90625 41.234375 58.0625 44.960938 59.476562 C 48.136719 60.832031 52.523438 60.3125 54.144531 56.894531 C 55.417969 53.414062 53.542969 49.703125 51.988281 46.609375 C 48.816406 41.589844 45.421875 36.316406 40.222656 33.183594 C 38.140625 31.890625 35.824219 31.320312 33.492188 31.324219 Z M 33.492188 31.324219 " fill-opacity="1" fill-rule="nonzero"/></g></svg>