<svg xmlns="http://www.w3.org/2000/svg" xmlns:xlink="http://www.w3.org/1999/xlink" width="90" zoomAndPan="magnify" viewBox="0 0 67.5 67.499996" height="90" preserveAspectRatio="xMidYMid meet" version="1.0"><defs><clipPath id="4c8e393c4c"><path d="M 0 0 L 67.003906 0 L 67.003906 67.003906 L 0 67.003906 Z M 0 0 " clip-rule="nonzero"/></clipPath></defs><g clip-path="url(#4c8e393c4c)"><path fill="#ffffff" d="M 0 0 L 67.003906 0 L 67.003906 67.003906 L 0 67.003906 Z M 0 0 " fill-opacity="1" fill-rule="nonzero"/></g><path fill="#ffd33a" d="M 50.464844 33.445312 C 50.464844 34.003906 50.4375 34.558594 50.382812 35.113281 C 50.328125 35.667969 50.246094 36.21875 50.136719 36.765625 C 50.027344 37.3125 49.890625 37.851562 49.730469 38.386719 C 49.570312 38.917969 49.382812 39.445312 49.167969 39.957031 C 48.953125 40.472656 48.714844 40.976562 48.453125 41.46875 C 48.191406 41.960938 47.90625 42.4375 47.59375 42.898438 C 47.285156 43.363281 46.953125 43.8125 46.601562 44.242188 C 46.246094 44.671875 45.875 45.085938 45.480469 45.480469 C 45.085938 45.871094 44.671875 46.246094 44.242188 46.601562 C 43.8125 46.953125 43.363281 47.285156 42.902344 47.59375 C 42.4375 47.90625 41.960938 48.191406 41.46875 48.453125 C 40.976562 48.714844 40.472656 48.953125 39.960938 49.167969 C 39.445312 49.378906 38.921875 49.566406 38.386719 49.730469 C 37.855469 49.890625 37.3125 50.027344 36.765625 50.136719 C 36.21875 50.246094 35.671875 50.324219 35.117188 50.378906 C 34.5625 50.433594 34.003906 50.460938 33.449219 50.460938 C 32.890625 50.460938 32.335938 50.433594 31.78125 50.378906 C 31.226562 50.324219 30.675781 50.246094 30.128906 50.136719 C 29.582031 50.027344 29.042969 49.890625 28.507812 49.730469 C 27.976562 49.566406 27.449219 49.378906 26.9375 49.167969 C 26.421875 48.953125 25.917969 48.714844 25.425781 48.453125 C 24.933594 48.191406 24.457031 47.90625 23.996094 47.59375 C 23.53125 47.285156 23.082031 46.953125 22.652344 46.601562 C 22.222656 46.246094 21.808594 45.871094 21.414062 45.480469 C 21.023438 45.085938 20.648438 44.671875 20.292969 44.242188 C 19.941406 43.8125 19.609375 43.363281 19.300781 42.898438 C 18.988281 42.4375 18.703125 41.960938 18.441406 41.46875 C 18.179688 40.976562 17.941406 40.472656 17.726562 39.957031 C 17.515625 39.445312 17.328125 38.917969 17.164062 38.386719 C 17.003906 37.851562 16.867188 37.3125 16.757812 36.765625 C 16.648438 36.21875 16.570312 35.667969 16.515625 35.113281 C 16.460938 34.558594 16.433594 34.003906 16.433594 33.445312 C 16.433594 32.890625 16.460938 32.332031 16.515625 31.777344 C 16.570312 31.222656 16.648438 30.675781 16.757812 30.128906 C 16.867188 29.582031 17.003906 29.039062 17.164062 28.507812 C 17.328125 27.972656 17.515625 27.449219 17.726562 26.933594 C 17.941406 26.421875 18.179688 25.917969 18.441406 25.425781 C 18.703125 24.933594 18.988281 24.457031 19.300781 23.992188 C 19.609375 23.53125 19.941406 23.082031 20.292969 22.652344 C 20.648438 22.222656 21.023438 21.808594 21.414062 21.414062 C 21.808594 21.019531 22.222656 20.648438 22.652344 20.292969 C 23.082031 19.941406 23.53125 19.609375 23.996094 19.300781 C 24.457031 18.988281 24.933594 18.703125 25.425781 18.441406 C 25.917969 18.179688 26.421875 17.941406 26.9375 17.726562 C 27.449219 17.511719 27.976562 17.324219 28.507812 17.164062 C 29.042969 17.003906 29.582031 16.867188 30.128906 16.757812 C 30.675781 16.648438 31.226562 16.566406 31.78125 16.511719 C 32.335938 16.457031 32.890625 16.429688 33.449219 16.429688 C 34.003906 16.429688 34.5625 16.457031 35.117188 16.511719 C 35.671875 16.566406 36.21875 16.648438 36.765625 16.757812 C 37.3125 16.867188 37.855469 17.003906 38.386719 17.164062 C 38.921875 17.324219 39.445312 17.511719 39.960938 17.726562 C 40.472656 17.941406 40.976562 18.179688 41.46875 18.441406 C 41.960938 18.703125 42.4375 18.988281 42.902344 19.300781 C 43.363281 19.609375 43.8125 19.941406 44.242188 20.292969 C 44.671875 20.648438 45.085938 21.019531 45.480469 21.414062 C 45.875 21.808594 46.246094 22.222656 46.601562 22.652344 C 46.953125 23.082031 47.285156 23.53125 47.59375 23.992188 C 47.90625 24.457031 48.191406 24.933594 48.453125 25.425781 C 48.714844 25.917969 48.953125 26.421875 49.167969 26.933594 C 49.382812 27.449219 49.570312 27.972656 49.730469 28.507812 C 49.890625 29.039062 50.027344 29.582031 50.136719 30.128906 C 50.246094 30.675781 50.328125 31.226562 50.382812 31.777344 C 50.4375 32.332031 50.464844 32.890625 50.464844 33.445312 Z M 50.464844 33.445312 " fill-opacity="1" fill-rule="nonzero"/><path fill="#ffd33a" d="M 33.449219 0.0234375 C 32.214844 0.0234375 31.21875 1.214844 31.21875 2.695312 L 31.21875 8.492188 C 31.21875 9.972656 32.214844 11.164062 33.449219 11.164062 C 34.683594 11.164062 35.675781 9.972656 35.675781 8.492188 L 35.675781 2.695312 C 35.675781 1.214844 34.683594 0.0234375 33.449219 0.0234375 Z M 33.449219 0.0234375 " fill-opacity="1" fill-rule="nonzero"/><path fill="#ffd33a" d="M 57.082031 9.8125 C 56.207031 8.941406 54.664062 9.082031 53.617188 10.128906 L 49.519531 14.226562 C 48.472656 15.273438 48.332031 16.816406 49.203125 17.691406 C 50.078125 18.5625 51.621094 18.421875 52.671875 17.375 L 56.765625 13.28125 C 57.8125 12.230469 57.953125 10.6875 57.082031 9.8125 Z M 57.082031 9.8125 " fill-opacity="1" fill-rule="nonzero"/><path fill="#ffd33a" d="M 66.871094 33.449219 C 66.871094 32.214844 65.679688 31.21875 64.199219 31.21875 L 58.402344 31.21875 C 56.921875 31.21875 55.730469 32.214844 55.730469 33.449219 C 55.730469 34.683594 56.921875 35.675781 58.402344 35.675781 L 64.199219 35.675781 C 65.679688 35.675781 66.871094 34.683594 66.871094 33.449219 Z M 66.871094 33.449219 " fill-opacity="1" fill-rule="nonzero"/><path fill="#ffd33a" d="M 57.082031 57.082031 C 57.953125 56.207031 57.8125 54.664062 56.765625 53.617188 L 52.671875 49.519531 C 51.621094 48.472656 50.078125 48.332031 49.203125 49.203125 C 48.332031 50.078125 48.472656 51.621094 49.519531 52.671875 L 53.617188 56.765625 C 54.664062 57.8125 56.207031 57.953125 57.082031 57.082031 Z M 57.082031 57.082031 " fill-opacity="1" fill-rule="nonzero"/><path fill="#ffd33a" d="M 33.449219 66.871094 C 34.683594 66.871094 35.675781 65.679688 35.675781 64.199219 L 35.675781 58.402344 C 35.675781 56.921875 34.683594 55.730469 33.449219 55.730469 C 32.214844 55.730469 31.21875 56.921875 31.21875 58.402344 L 31.21875 64.199219 C 31.21875 65.679688 32.214844 66.871094 33.449219 66.871094 Z M 33.449219 66.871094 " fill-opacity="1" fill-rule="nonzero"/><path fill="#ffd33a" d="M 9.8125 57.082031 C 10.6875 57.953125 12.230469 57.8125 13.277344 56.765625 L 17.375 52.671875 C 18.421875 51.621094 18.5625 50.078125 17.691406 49.203125 C 16.816406 48.332031 15.273438 48.472656 14.226562 49.519531 L 10.128906 53.617188 C 9.082031 54.664062 8.941406 56.207031 9.8125 57.082031 Z M 9.8125 57.082031 " fill-opacity="1" fill-rule="nonzero"/><path fill="#ffd33a" d="M 0.0234375 33.449219 C 0.0234375 34.683594 1.214844 35.675781 2.695312 35.675781 L 8.492188 35.675781 C 9.972656 35.675781 11.164062 34.683594 11.164062 33.449219 C 11.164062 32.214844 9.972656 31.21875 8.492188 31.21875 L 2.695312 31.21875 C 1.214844 31.21875 0.0234375 32.214844 0.0234375 33.449219 Z M 0.0234375 33.449219 " fill-opacity="1" fill-rule="nonzero"/><path fill="#ffd33a" d="M 9.8125 9.8125 C 8.941406 10.6875 9.082031 12.230469 10.128906 13.28125 L 14.226562 17.375 C 15.273438 18.421875 16.816406 18.5625 17.691406 17.691406 C 18.5625 16.816406 18.421875 15.273438 17.375 14.226562 L 13.28125 10.128906 C 12.230469 9.082031 10.6875 8.941406 9.8125 9.8125 Z M 9.8125 9.8125 " fill-opacity="1" fill-rule="nonzero"/><path fill="#ffd33a" d="M 50.464844 33.445312 C 50.464844 34.003906 50.4375 34.558594 50.382812 35.113281 C 50.328125 35.667969 50.246094 36.21875 50.136719 36.765625 C 50.027344 37.3125 49.890625 37.851562 49.730469 38.386719 C 49.570312 38.917969 49.382812 39.445312 49.167969 39.957031 C 48.953125 40.472656 48.714844 40.976562 48.453125 41.46875 C 48.191406 41.960938 47.90625 42.4375 47.59375 42.898438 C 47.285156 43.363281 46.953125 43.8125 46.601562 44.242188 C 46.246094 44.671875 45.875 45.085938 45.480469 45.480469 C 45.085938 45.871094 44.671875 46.246094 44.242188 46.601562 C 43.8125 46.953125 43.363281 47.285156 42.902344 47.59375 C 42.4375 47.90625 41.960938 48.191406 41.46875 48.453125 C 40.976562 48.714844 40.472656 48.953125 39.960938 49.167969 C 39.445312 49.378906 38.921875 49.566406 38.386719 49.730469 C 37.855469 49.890625 37.3125 50.027344 36.765625 50.136719 C 36.21875 50.246094 35.671875 50.324219 35.117188 50.378906 C 34.5625 50.433594 34.003906 50.460938 33.449219 50.460938 C 32.890625 50.460938 32.335938 50.433594 31.78125 50.378906 C 31.226562 50.324219 30.675781 50.246094 30.128906 50.136719 C 29.582031 50.027344 29.042969 49.890625 28.507812 49.730469 C 27.976562 49.566406 27.449219 49.378906 26.9375 49.167969 C 26.421875 48.953125 25.917969 48.714844 25.425781 48.453125 C 24.933594 48.191406 24.457031 47.90625 23.996094 47.59375 C 23.53125 47.285156 23.082031 46.953125 22.652344 46.601562 C 22.222656 46.246094 21.808594 45.871094 21.414062 45.480469 C 21.023438 45.085938 20.648438 44.671875 20.292969 44.242188 C 19.941406 43.8125 19.609375 43.363281 19.300781 42.898438 C 18.988281 42.4375 18.703125 41.960938 18.441406 41.46875 C 18.179688 40.976562 17.941406 40.472656 17.726562 39.957031 C 17.515625 39.445312 17.328125 38.917969 17.164062 38.386719 C 17.003906 37.851562 16.867188 37.3125 16.757812 36.765625 C 16.648438 36.21875 16.570312 35.667969 16.515625 35.113281 C 16.460938 34.558594 16.433594 34.003906 16.433594 33.445312 C 16.433594 32.890625 16.460938 32.332031 16.515625 31.777344 C 16.570312 31.222656 16.648438 30.675781 16.757812 30.128906 C 16.867188 29.582031 17.003906 29.039062 17.164062 28.507812 C 17.328125 27.972656 17.515625 27.449219 17.726562 26.933594 C 17.941406 26.421875 18.179688 25.917969 18.441406 25.425781 C 18.703125 24.933594 18.988281 24.457031 19.300781 23.992188 C 19.609375 23.53125 19.941406 23.082031 20.292969 22.652344 C 20.648438 22.222656 21.023438 21.808594 21.414062 21.414062 C 21.808594 21.019531 22.222656 20.648438 22.652344 20.292969 C 23.082031 19.941406 23.53125 19.609375 23.996094 19.300781 C 24.457031 18.988281 24.933594 18.703125 25.425781 18.441406 C 25.917969 18.179688 26.421875 17.941406 26.9375 17.726562 C 27.449219 17.511719 27.976562 17.324219 28.507812 17.164062 C 29.042969 17.003906 29.582031 16.867188 30.128906 16.757812 C 30.675781 16.648438 31.226562 16.566406 31.78125 16.511719 C 32.335938 16.457031 32.890625 16.429688 33.449219 16.429688 C 34.003906 16.429688 34.5625 16.457031 35.117188 16.511719 C 35.671875 16.566406 36.21875 16.648438 36.765625 16.757812 C 37.3125 16.867188 37.855469 17.003906 38.386719 17.164062 C 38.921875 17.324219 39.445312 17.511719 39.960938 17.726562 C 40.472656 17.941406 40.976562 18.179688 41.46875 18.441406 C 41.960938 18.703125 42.4375 18.988281 42.902344 19.300781 C 43.363281 19.609375 43.8125 19.941406 44.242188 20.292969 C 44.671875 20.648438 45.085938 21.019531 45.480469 21.414062 C 45.875 21.808594 46.246094 22.222656 46.601562 22.652344 C 46.953125 23.082031 47.285156 23.53125 47.59375 23.992188 C 47.90625 24.457031 48.191406 24.933594 48.453125 25.425781 C 48.714844 25.917969 48.953125 26.421875 49.167969 26.933594 C 49.382812 27.449219 49.570312 27.972656 49.730469 28.507812 C 49.890625 29.039062 50.027344 29.582031 50.136719 30.128906 C 50.246094 30.675781 50.328125 31.226562 50.382812 31.777344 C 50.4375 32.332031 50.464844 32.890625 50.464844 33.445312 Z M 50.464844 33.445312 " fill-opacity="1" fill-rule="nonzero"/><path fill="#ffd33a" d="M 33.449219 0.0234375 C 32.214844 0.0234375 31.21875 1.214844 31.21875 2.695312 L 31.21875 8.492188 C 31.21875 9.972656 32.214844 11.164062 33.449219 11.164062 C 34.683594 11.164062 35.675781 9.972656 35.675781 8.492188 L 35.675781 2.695312 C 35.675781 1.214844 34.683594 0.0234375 33.449219 0.0234375 Z M 33.449219 0.0234375 " fill-opacity="1" fill-rule="nonzero"/><path fill="#ffd33a" d="M 57.082031 9.8125 C 56.207031 8.941406 54.664062 9.082031 53.617188 10.128906 L 49.519531 14.226562 C 48.472656 15.273438 48.332031 16.816406 49.203125 17.691406 C 50.078125 18.5625 51.621094 18.421875 52.671875 17.375 L 56.765625 13.28125 C 57.8125 12.230469 57.953125 10.6875 57.082031 9.8125 Z M 57.082031 9.8125 " fill-opacity="1" fill-rule="nonzero"/><path fill="#ffd33a" d="M 66.871094 33.449219 C 66.871094 32.214844 65.679688 31.21875 64.199219 31.21875 L 58.402344 31.21875 C 56.921875 31.21875 55.730469 32.214844 55.730469 33.449219 C 55.730469 34.683594 56.921875 35.675781 58.402344 35.675781 L 64.199219 35.675781 C 65.679688 35.675781 66.871094 34.683594 66.871094 33.449219 Z M 66.871094 33.449219 " fill-opacity="1" fill-rule="nonzero"/><path fill="#ffd33a" d="M 57.082031 57.082031 C 57.953125 56.207031 57.8125 54.664062 56.765625 53.617188 L 52.671875 49.519531 C 51.621094 48.472656 50.078125 48.332031 49.203125 49.203125 C 48.332031 50.078125 48.472656 51.621094 49.519531 52.671875 L 53.617188 56.765625 C 54.664062 57.8125 56.207031 57.953125 57.082031 57.082031 Z M 57.082031 57.082031 " fill-opacity="1" fill-rule="nonzero"/><path fill="#ffd33a" d="M 33.449219 66.871094 C 34.683594 66.871094 35.675781 65.679688 35.675781 64.199219 L 35.675781 58.402344 C 35.675781 56.921875 34.683594 55.730469 33.449219 55.730469 C 32.214844 55.730469 31.21875 56.921875 31.21875 58.402344 L 31.21875 64.199219 C 31.21875 65.679688 32.214844 66.871094 33.449219 66.871094 Z M 33.449219 66.871094 " fill-opacity="1" fill-rule="nonzero"/><path fill="#ffd33a" d="M 9.8125 57.082031 C 10.6875 57.953125 12.230469 57.8125 13.277344 56.765625 L 17.375 52.671875 C 18.421875 51.621094 18.5625 50.078125 17.691406 49.203125 C 16.816406 48.332031 15.273438 48.472656 14.226562 49.519531 L 10.128906 53.617188 C 9.082031 54.664062 8.941406 56.207031 9.8125 57.082031 Z M 9.8125 57.082031 " fill-opacity="1" fill-rule="nonzero"/><path fill="#ffd33a" d="M 0.0234375 33.449219 C 0.0234375 34.683594 1.214844 35.675781 2.695312 35.675781 L 8.492188 35.675781 C 9.972656 35.675781 11.164062 34.683594 11.164062 33.449219 C 11.164062 32.214844 9.972656 31.21875 8.492188 31.21875 L 2.695312 31.21875 C 1.214844 31.21875 0.0234375 32.214844 0.0234375 33.449219 Z M 0.0234375 33.449219 " fill-opacity="1" fill-rule="nonzero"/><path fill="#ffd33a" d="M 9.8125 9.8125 C 8.941406 10.6875 9.082031 12.230469 10.128906 13.28125 L 14.226562 17.375 C 15.273438 18.421875 16.816406 18.5625 17.691406 17.691406 C 18.5625 16.816406 18.421875 15.273438 17.375 14.226562 L 13.28125 10.128906 C 12.230469 9.082031 10.6875 8.941406 9.8125 9.8125 Z M 9.8125 9.8125 " fill-opacity="1" fill-rule="nonzero"/></svg>